<?xml version="1.0" encoding="utf-8"?>
<!-- Generator: Adobe Illustrator 23.0.3, SVG Export Plug-In . SVG Version: 6.00 Build 0)  -->
<svg version="1.1" id="Layer_1" xmlns="http://www.w3.org/2000/svg" xmlns:xlink="http://www.w3.org/1999/xlink" x="0px" y="0px"
	 viewBox="0 0 167 67" style="enable-background:new 0 0 167 67;" xml:space="preserve">
<style type="text/css">
	.st0{fill-rule:evenodd;clip-rule:evenodd;fill:#1F2B40;}
	.st1{fill-rule:evenodd;clip-rule:evenodd;fill:#FF8B00;}
	.st2{opacity:0.2568;fill:#1F2B40;enable-background:new    ;}
</style>
<title>Group 15</title>
<g id="Stiri">
	<g id="Artboard" transform="translate(-596.000000, -35.000000)">
		<g id="Group-15" transform="translate(596.000000, 35.000000)">
			<g id="Group-14">
				<path id="Combined-Shape_28_" class="st0" d="M17.3,5.9c4.6,0,8.7,0.7,12.4,2.1l-2.1,10c-2.9-1.1-6.3-1.8-9.6-1.8
					c-2.1,0-3.7,0.4-3.7,2.2c0,2.1,1.2,2.8,4.5,3.7c5.8,1.8,13,3.8,13,13.6c0,7.6-3.9,12.1-9.6,14.3c-0.2-0.3-0.4-0.6-0.6-0.9
					c-1.6-1.8-3.7-2.7-6.5-2.7c-2.3,0-4.1,0.6-5.4,1.7c-1,0.9-1.7,1.9-2,3.2c-2.5-0.3-4.6-0.8-7.6-1.6l1.2-10.6
					c3,1.1,6.6,1.8,10,1.8c5.1,0,6.3-1.1,6.3-3c0-2.1-1.1-2.6-6.6-4.3C4.1,31.3,0,27.8,0,20.2C-0.1,10.3,8.1,5.9,17.3,5.9z"/>
				<path id="Path_191_" class="st1" d="M19.2,62.3c-1.7,2.2-4,3.7-6.9,4.6c-0.5,0-0.8-0.1-0.9-0.3l-1.4-1.6
					c-0.3-0.4-0.2-0.7,0.4-1.1c2.4-1.5,3.8-3.3,4.2-5.5c-1.5-0.2-2.7-0.6-3.6-1.6C10.2,56,9.7,55,9.7,53.6c0-1.6,0.5-2.9,1.6-3.7
					c1-0.8,2.3-1.2,3.9-1.2c2,0,3.5,0.6,4.7,2c1.1,1.3,1.7,3.1,1.7,5.2C21.7,58.1,20.9,60.2,19.2,62.3z"/>
				<path id="Shape" class="st0" d="M51,6.3L50.4,16h6.1l-1.9,9.7h-4.8l-0.6,7.7l0,0.5c-0.2,3.4,0.1,4.7,2.9,4.8l0.1,0h3.1l-1.9,9.8
					c-3.4,0-6.1,0-8.3,0c-5.7,0-9.5-2.5-9.2-9.6l0-0.2l0.9-13h-5.2l1.9-9.7h3.9l3.5-9.7 M75.6,16l-2.1,32.5H60.7l1.5-22.8h-4.9
					l1.9-9.7H75.6z M116.6,16l-2.1,32.5h-12.8l1.5-22.8h-4.4l1.4-9.7H116.6z M97.8,16l-1.4,9.7h-5.6l-1.5,22.8H76.3L78.4,16H97.8z
					 M110.5,0c4.3,0,7,2.6,6.7,6.9c-0.3,4.2-3.3,6.9-7.6,6.9s-7-2.6-6.7-6.9C103.2,2.6,106.2,0,110.5,0z M68.9,0
					c4.3,0,7,2.6,6.7,6.9c-0.3,4.2-3.3,6.9-7.6,6.9s-7-2.6-6.7-6.9C61.6,2.6,64.6,0,68.9,0z"/>
			</g>
			<path class="st2" d="M129.5,33.1l3.4,9.3h0.1l4.7-9.3h7.9l-1.1,15.4h-5.7l0.6-8.7h-0.1l-4.3,8.7h-4.9l-3.2-8.7h-0.1l-0.6,8.7
				h-5.7l1.2-15.4H129.5z M157.4,33.1c2.9,0,5.1,0.7,6.6,2c1.5,1.3,2.1,3.2,1.9,5.7c-0.1,1.6-0.6,3.1-1.3,4.2
				c-0.8,1.1-1.9,2-3.3,2.6c-1.4,0.6-3.1,0.9-5,0.9h-9.4l1.1-15.4H157.4z M157.1,37.5h-2.8l-0.4,6.6h2.8c0.7,0,1.3-0.1,1.9-0.4
				c0.5-0.2,0.9-0.7,1.3-1.1c0.3-0.5,0.5-1.1,0.6-1.8c0.1-1-0.2-1.9-0.7-2.5C159,37.8,158.2,37.5,157.1,37.5z"/>
		</g>
	</g>
</g>
</svg>
